PathFileType	4	(X/Y/Z)	E:\Marcel_BSc\Ayumi_22_01_2025\22-01-2025\conv_dl_2.trc
DataRate	CameraRate	NumFrames	NumMarkers	Units	OrigDataRate	OrigDataStartFrame	OrigNumFrames
200.0	200.0	4	48	mm	200.0	1	2314	
Frame#	Time	FHD			LBHD			RBHD			RBAR			LBAR			RSACR			LSACR			LASI			USACR			LTHI2			C7			CLAV			T10			RSHO			LSHO			LTHI1			LTHI3			LTIB1			LTIB2			LTIB3			LMMAL			LLMAL			LHEE			LMT1			LMT5			LMT3			RTHI1			RTHI2			RTHI3			RTIB1			RTIB3			RTIB2			RLMAL			RMMAL			RHEE			RMT5			RMT1			RMT3			LDUPA			LMUPA			LUUPA			LRAD			RUL			RRAD			RUFIN			RMUPA			RDUPA			RUUPA			
		X1	Y1	Z1	X2	Y2	Z2	X3	Y3	Z3	X4	Y4	Z4	X5	Y5	Z5	X6	Y6	Z6	X7	Y7	Z7	X8	Y8	Z8	X9	Y9	Z9	X10	Y10	Z10	X11	Y11	Z11	X12	Y12	Z12	X13	Y13	Z13	X14	Y14	Z14	X15	Y15	Z15	X16	Y16	Z16	X17	Y17	Z17	X18	Y18	Z18	X19	Y19	Z19	X20	Y20	Z20	X21	Y21	Z21	X22	Y22	Z22	X23	Y23	Z23	X24	Y24	Z24	X25	Y25	Z25	X26	Y26	Z26	X27	Y27	Z27	X28	Y28	Z28	X29	Y29	Z29	X30	Y30	Z30	X31	Y31	Z31	X32	Y32	Z32	X33	Y33	Z33	X34	Y34	Z34	X35	Y35	Z35	X36	Y36	Z36	X37	Y37	Z37	X38	Y38	Z38	X39	Y39	Z39	X40	Y40	Z40	X41	Y41	Z41	X42	Y42	Z42	X43	Y43	Z43	X44	Y44	Z44	X45	Y45	Z45	X46	Y46	Z46	X47	Y47	Z47	X48	Y48	Z48	
1	-0.005	106.40187	1611.4697	-610.40588	119.99232	1593.1473	-550.06818	150.42207	1583.113	-680.45959	218.1956	239.7473	-1724.8112	193.66771	251.33424	498.02179	334.71164	963.92175	-652.09473	332.17804	965.45911	-580.00616				325.63712	974.58954	-616.22754	232.50813	551.78534	-436.8851	304.06012	1401.2612	-599.42755	167.24971	1339.1768	-613.00848	320.78687	1123.3927	-608.67212	247.5779	1415.061	-741.67096	230.97972	1406.1589	-465.56717	260.75894	611.98022	-430.94168	282.8837	550.92438	-443.12302	270.09045	240.28572	-428.18732	320.93307	236.32082	-431.49731	289.54416	179.11847	-436.20587	282.94226	73.73893	-521.20038	303.21539	73.137329	-448.85974	341.47925	36.712635	-490.56479	144.40454	43.983215	-473.54218	173.66705	30.144171	-397.72607	146.90996	41.028774	-438.22781	270.23947	612.44543	-788.60559	242.7769	553.3316	-782.2323	293.95013	552.21674	-779.68689	279.14578	280.36172	-795.112	299.33264	217.72548	-789.32196	329.44592	276.50931	-793.5376	307.83176	74.720642	-769.90118	274.74554	78.846436	-699.76361	348.86398	32.154186	-726.76953	176.30084	34.51096	-813.62866	149.19722	41.116844	-753.93622	155.63469	38.969646	-784.32953	308.13266	1330.9041	-278.68857	281.79721	1373.1462	-281.78284	292.27612	1375.175	-343.13974	239.68898	1369.2688	50.326683	333.23489	1379.9789	-1240.3846	276.77347	1406.2932	-1243.5679	282.27045	1416.3389	-1313.6688	321.98315	1372.5193	-845.03186	328.1319	1365.0819	-906.33282	336.716	1325.4716	-838.29211
2	0	106.44541	1611.4958	-610.42078	120.01994	1593.1647	-550.10364	150.46423	1583.1193	-680.48206	218.27269	239.46219	-1725.0229	193.66995	251.3273	498.01526	334.26971	964.14081	-652.26361	332.15613	965.45044	-579.95465				325.39783	974.74646	-616.34027	232.47272	551.78351	-436.86942	304.0997	1401.2605	-599.42035	167.26262	1339.1937	-613.00165	320.83539	1123.3838	-608.6507	247.62756	1415.0519	-741.66309	230.97267	1406.1874	-465.56458	260.72217	611.97205	-430.92389	282.84555	550.9314	-443.08533	270.10114	240.26726	-428.1763	320.93585	236.32468	-431.47723	289.53519	179.12338	-436.20737	282.92087	73.725677	-521.21283	303.22455	73.126991	-448.85645	341.49249	36.709587	-490.55441	144.40601	43.984829	-473.54092	173.64134	30.151361	-397.75	146.89684	41.045757	-438.22668	270.21234	612.4375	-788.57819	242.74635	553.35266	-782.20374	293.93112	552.23627	-779.6825	279.13055	280.36871	-795.091	299.31955	217.71834	-789.30469	329.42902	276.50952	-793.51825	307.83649	74.725647	-769.89526	274.72916	78.834366	-699.76166	348.87073	32.157364	-726.76575	177.14317	33.133926	-813.22247	149.19121	41.10527	-753.93286	155.64468	38.965378	-784.32483	308.12494	1330.9093	-278.66229	281.78833	1373.1304	-281.77512	292.2562	1375.1984	-343.10312	239.65398	1369.2462	50.338215	333.31985	1379.9342	-1240.3717	277.07617	1405.9036	-1243.6646	282.35028	1416.2808	-1313.6604	322.01898	1372.5345	-845.03687	328.18341	1365.0549	-906.34406	336.75409	1325.4434	-838.26855
3	0.005	106.48772	1611.5125	-610.44965	120.06501	1593.1735	-550.11926	150.52135	1583.1174	-680.50256	218.20033	239.75613	-1724.8115	193.66409	251.32483	498.02008	334.70966	963.88812	-652.02081	331.80896	965.6402	-579.79907				325.62863	974.53296	-616.15839	232.43874	551.77283	-436.85971	304.13406	1401.2589	-599.40002	167.29291	1339.2043	-613.01483	320.85364	1123.382	-608.61743	247.68301	1415.0464	-741.66974	230.99142	1406.2004	-465.54895	260.67633	611.96997	-430.89999	282.7995	550.93219	-443.06003	270.05606	240.29558	-428.16617	320.88275	236.31404	-431.46707	289.49368	179.12524	-436.19434	282.92157	73.727646	-521.20959	303.21317	73.102776	-448.8811	341.48328	36.71735	-490.56375	144.40938	43.973778	-473.54501	173.6541	30.143526	-397.74387	146.89235	41.040657	-438.22708	270.18387	612.43549	-788.56384	242.71927	553.3681	-782.17859	293.89954	552.22504	-779.66687	279.11765	280.35956	-795.0802	299.30347	217.71867	-789.31104	329.41428	276.50485	-793.50354	307.82495	74.717918	-769.89447	274.72427	78.832924	-699.75171	348.86923	32.164402	-726.76898	177.07571	33.251766	-813.20886	149.19385	41.120865	-753.93689	155.63887	38.967827	-784.32202	308.11273	1330.9076	-278.65262	281.76355	1373.1313	-281.75089	292.08057	1375.5625	-342.91409	239.60971	1369.2175	50.342163	333.40594	1379.8766	-1240.3594	277.13983	1405.8333	-1243.657	282.43665	1416.2031	-1313.6637	322.06128	1372.5194	-845.03784	328.24628	1365.0062	-906.31616	336.7966	1325.4091	-838.25067
4	0.01	106.53333	1611.5028	-610.5061	120.09555	1593.2068	-550.14624	150.56279	1583.1274	-680.52039	218.3159	239.53059	-1724.9315	193.65907	251.32614	498.02585	334.26562	964.07367	-652.18152	331.80493	965.62714	-579.75623				325.39584	974.71063	-616.25885	232.39262	551.77454	-436.85236	304.15771	1401.2692	-599.39813	167.32365	1339.2137	-613.00964	320.89136	1123.373	-608.58527	247.71626	1415.0475	-741.67505	230.98637	1406.2014	-465.5575	259.96552	612.26746	-430.98163	282.73846	550.92633	-443.04462	270.03653	240.24872	-428.18063	320.88269	236.31935	-431.44183	289.48148	179.11818	-436.20105	282.92773	73.737251	-521.20593	303.21948	73.125755	-448.87234	341.48846	36.715458	-490.56122	144.40117	43.981987	-473.53796	173.65599	30.146643	-397.74564	146.89737	41.037445	-438.23453	270.17401	612.45282	-788.56238	242.68884	553.36371	-782.17822	293.86307	552.22516	-779.64203	279.08746	280.36874	-795.05591	299.28238	217.73438	-789.30444	329.38321	276.51495	-793.4884	307.81754	74.722282	-769.89569	274.71967	78.831055	-699.75397	348.85916	32.153389	-726.76807	177.04211	33.292477	-813.2265	149.2014	41.116444	-753.92554	155.72681	38.798374	-784.26501	308.10281	1330.9031	-278.63348	281.73853	1373.1233	-281.73575	292.10187	1375.5493	-342.88565	239.58615	1369.1957	50.356667	333.49893	1379.8217	-1240.338	277.23007	1405.7693	-1243.6453	282.52411	1416.1316	-1313.662	322.09897	1372.5096	-845.04175	328.31537	1364.9866	-906.32086	336.82812	1325.3763	-838.22949
